<?xml version="1.0" standalone="no"?>
<!DOCTYPE svg PUBLIC "-//W3C//DTD SVG 1.1//EN"
  "http://www.w3.org/Graphics/SVG/1.1/DTD/svg11.dtd">
<svg width="800" height="800"
     xmlns="http://www.w3.org/2000/svg" version="1.1">
<rect x="0" y="0" width="100%" height="100%" fill="white" />
<defs>
<marker id="arrow" markerWidth="10" markerHeight="10" refX="10" refY="3" orient="auto">
<path d="M0,0 L0,6 L9,3 z"/>
</marker>
</defs>
<circle cx="240" cy="266" r="3" fill="blue" />
<circle cx="198" cy="612" r="3" fill="blue" />
<circle cx="640" cy="665" r="3" fill="blue" />
<circle cx="415" cy="180" r="3" fill="blue" />
<circle cx="505" cy="220" r="3" fill="blue" />
<circle cx="383" cy="133" r="3" fill="blue" />
<circle cx="688" cy="122" r="3" fill="blue" />
<circle cx="168" cy="214" r="3" fill="blue" />
<circle cx="481" cy="163" r="3" fill="blue" />
<circle cx="283" cy="457" r="3" fill="blue" />
<circle cx="134" cy="409" r="3" fill="blue" />
<circle cx="276" cy="686" r="3" fill="blue" />
<circle cx="335" cy="699" r="3" fill="blue" />
<circle cx="285" cy="440" r="3" fill="blue" />
<circle cx="494" cy="375" r="3" fill="blue" />
<circle cx="456" cy="292" r="3" fill="blue" />
<circle cx="430" cy="669" r="3" fill="blue" />
<circle cx="169" cy="603" r="3" fill="blue" />
<circle cx="572" cy="251" r="3" fill="blue" />
<circle cx="203" cy="505" r="3" fill="blue" />
<circle cx="620" cy="492" r="3" fill="blue" />
<circle cx="384" cy="240" r="3" fill="blue" />
<circle cx="192" cy="693" r="3" fill="blue" />
<circle cx="171" cy="646" r="3" fill="blue" />
<circle cx="172" cy="365" r="3" fill="blue" />
<circle cx="131" cy="366" r="3" fill="blue" />
<circle cx="208" cy="626" r="3" fill="blue" />
<circle cx="473" cy="255" r="3" fill="blue" />
<circle cx="665" cy="584" r="3" fill="blue" />
<circle cx="389" cy="323" r="3" fill="blue" />
<circle cx="356" cy="625" r="3" fill="blue" />
<circle cx="251" cy="450" r="3" fill="blue" />
<circle cx="104" cy="222" r="3" fill="blue" />
<circle cx="163" cy="167" r="3" fill="blue" />
<circle cx="531" cy="476" r="3" fill="blue" />
<circle cx="675" cy="349" r="3" fill="blue" />
<circle cx="373" cy="559" r="3" fill="blue" />
<circle cx="444" cy="186" r="3" fill="blue" />
<circle cx="112" cy="333" r="3" fill="blue" />
<circle cx="350" cy="422" r="3" fill="blue" />
<circle cx="577" cy="184" r="3" fill="blue" />
<circle cx="389" cy="201" r="3" fill="blue" />
<circle cx="260" cy="229" r="3" fill="blue" />
<circle cx="625" cy="692" r="3" fill="blue" />
<circle cx="690" cy="339" r="3" fill="blue" />
<circle cx="419" cy="529" r="3" fill="blue" />
<circle cx="585" cy="165" r="3" fill="blue" />
<circle cx="110" cy="140" r="3" fill="blue" />
<circle cx="466" cy="643" r="3" fill="blue" />
<circle cx="121" cy="606" r="3" fill="blue" />
<circle cx="240" cy="266" r="3" fill="blue" />
<line x1="168" y1="214" x2="240" y2="266"
      style="stroke: red;"   />
<line x1="260" y1="229" x2="240" y2="266"
      style="stroke: red;"   />
<circle cx="198" cy="612" r="3" fill="blue" />
<line x1="169" y1="603" x2="198" y2="612"
      style="stroke: darkgray;"   />
<line x1="198" y1="612" x2="192" y2="693"
      style="stroke: darkgray;"   />
<line x1="198" y1="612" x2="171" y2="646"
      style="stroke: darkgray;"   />
<line x1="198" y1="612" x2="208" y2="626"
      style="stroke: darkgray;"   />
<line x1="121" y1="606" x2="198" y2="612"
      style="stroke: darkgray;"   />
<circle cx="640" cy="665" r="3" fill="blue" />
<line x1="665" y1="584" x2="640" y2="665"
      style="stroke: darkgray;"   />
<line x1="640" y1="665" x2="625" y2="692"
      style="stroke: darkgray;"   />
<circle cx="415" cy="180" r="3" fill="blue" />
<line x1="383" y1="133" x2="415" y2="180"
      style="stroke: darkgray;"   />
<line x1="481" y1="163" x2="415" y2="180"
      style="stroke: darkgray;"   />
<line x1="415" y1="180" x2="384" y2="240"
      style="stroke: darkgray;"   />
<line x1="415" y1="180" x2="444" y2="186"
      style="stroke: darkgray;"   />
<line x1="415" y1="180" x2="389" y2="201"
      style="stroke: darkgray;"   />
<circle cx="505" cy="220" r="3" fill="blue" />
<line x1="481" y1="163" x2="505" y2="220"
      style="stroke: darkgray;"   />
<line x1="505" y1="220" x2="456" y2="292"
      style="stroke: darkgray;"   />
<line x1="505" y1="220" x2="572" y2="251"
      style="stroke: darkgray;"   />
<line x1="505" y1="220" x2="473" y2="255"
      style="stroke: darkgray;"   />
<line x1="444" y1="186" x2="505" y2="220"
      style="stroke: darkgray;"   />
<line x1="577" y1="184" x2="505" y2="220"
      style="stroke: darkgray;"   />
<circle cx="383" cy="133" r="3" fill="blue" />
<line x1="383" y1="133" x2="444" y2="186"
      style="stroke: darkgray;"   />
<line x1="383" y1="133" x2="389" y2="201"
      style="stroke: darkgray;"   />
<circle cx="688" cy="122" r="3" fill="blue" />
<circle cx="168" cy="214" r="3" fill="blue" />
<line x1="168" y1="214" x2="104" y2="222"
      style="stroke: darkgray;"   />
<line x1="163" y1="167" x2="168" y2="214"
      style="stroke: red;"   />
<circle cx="481" cy="163" r="3" fill="blue" />
<line x1="481" y1="163" x2="444" y2="186"
      style="stroke: darkgray;"   />
<circle cx="283" cy="457" r="3" fill="blue" />
<line x1="285" y1="440" x2="283" y2="457"
      style="stroke: darkgray;"   />
<line x1="251" y1="450" x2="283" y2="457"
      style="stroke: darkgray;"   />
<line x1="350" y1="422" x2="283" y2="457"
      style="stroke: darkgray;"   />
<circle cx="134" cy="409" r="3" fill="blue" />
<line x1="172" y1="365" x2="134" y2="409"
      style="stroke: darkgray;"   />
<line x1="131" y1="366" x2="134" y2="409"
      style="stroke: darkgray;"   />
<line x1="112" y1="333" x2="134" y2="409"
      style="stroke: darkgray;"   />
<circle cx="276" cy="686" r="3" fill="blue" />
<line x1="276" y1="686" x2="335" y2="699"
      style="stroke: darkgray;"   />
<line x1="276" y1="686" x2="192" y2="693"
      style="stroke: darkgray;"   />
<circle cx="335" cy="699" r="3" fill="blue" />
<line x1="356" y1="625" x2="335" y2="699"
      style="stroke: darkgray;"   />
<circle cx="285" cy="440" r="3" fill="blue" />
<line x1="285" y1="440" x2="251" y2="450"
      style="stroke: darkgray;"   />
<line x1="350" y1="422" x2="285" y2="440"
      style="stroke: darkgray;"   />
<circle cx="494" cy="375" r="3" fill="blue" />
<circle cx="456" cy="292" r="3" fill="blue" />
<line x1="384" y1="240" x2="456" y2="292"
      style="stroke: darkgray;"   />
<line x1="473" y1="255" x2="456" y2="292"
      style="stroke: darkgray;"   />
<line x1="456" y1="292" x2="389" y2="323"
      style="stroke: darkgray;"   />
<circle cx="430" cy="669" r="3" fill="blue" />
<line x1="356" y1="625" x2="430" y2="669"
      style="stroke: darkgray;"   />
<line x1="466" y1="643" x2="430" y2="669"
      style="stroke: darkgray;"   />
<circle cx="169" cy="603" r="3" fill="blue" />
<line x1="169" y1="603" x2="171" y2="646"
      style="stroke: darkgray;"   />
<line x1="169" y1="603" x2="208" y2="626"
      style="stroke: darkgray;"   />
<line x1="169" y1="603" x2="121" y2="606"
      style="stroke: darkgray;"   />
<circle cx="572" cy="251" r="3" fill="blue" />
<line x1="577" y1="184" x2="572" y2="251"
      style="stroke: darkgray;"   />
<line x1="585" y1="165" x2="572" y2="251"
      style="stroke: darkgray;"   />
<circle cx="203" cy="505" r="3" fill="blue" />
<line x1="251" y1="450" x2="203" y2="505"
      style="stroke: darkgray;"   />
<circle cx="620" cy="492" r="3" fill="blue" />
<circle cx="384" cy="240" r="3" fill="blue" />
<line x1="384" y1="240" x2="473" y2="255"
      style="stroke: darkgray;"   />
<line x1="384" y1="240" x2="389" y2="323"
      style="stroke: darkgray;"   />
<line x1="444" y1="186" x2="384" y2="240"
      style="stroke: darkgray;"   />
<line x1="389" y1="201" x2="384" y2="240"
      style="stroke: darkgray;"   />
<circle cx="192" cy="693" r="3" fill="blue" />
<line x1="171" y1="646" x2="192" y2="693"
      style="stroke: darkgray;"   />
<line x1="208" y1="626" x2="192" y2="693"
      style="stroke: darkgray;"   />
<circle cx="171" cy="646" r="3" fill="blue" />
<line x1="208" y1="626" x2="171" y2="646"
      style="stroke: darkgray;"   />
<line x1="121" y1="606" x2="171" y2="646"
      style="stroke: darkgray;"   />
<circle cx="172" cy="365" r="3" fill="blue" />
<line x1="172" y1="365" x2="131" y2="366"
      style="stroke: darkgray;"   />
<line x1="112" y1="333" x2="172" y2="365"
      style="stroke: darkgray;"   />
<circle cx="131" cy="366" r="3" fill="blue" />
<line x1="112" y1="333" x2="131" y2="366"
      style="stroke: darkgray;"   />
<circle cx="208" cy="626" r="3" fill="blue" />
<line x1="121" y1="606" x2="208" y2="626"
      style="stroke: darkgray;"   />
<circle cx="473" cy="255" r="3" fill="blue" />
<line x1="444" y1="186" x2="473" y2="255"
      style="stroke: darkgray;"   />
<circle cx="665" cy="584" r="3" fill="blue" />
<circle cx="389" cy="323" r="3" fill="blue" />
<circle cx="356" cy="625" r="3" fill="blue" />
<line x1="373" y1="559" x2="356" y2="625"
      style="stroke: darkgray;"   />
<circle cx="251" cy="450" r="3" fill="blue" />
<circle cx="104" cy="222" r="3" fill="blue" />
<line x1="163" y1="167" x2="104" y2="222"
      style="stroke: darkgray;"   />
<line x1="110" y1="140" x2="104" y2="222"
      style="stroke: red;"   />
<circle cx="163" cy="167" r="3" fill="blue" />
<line x1="110" y1="140" x2="163" y2="167"
      style="stroke: red;"   />
<circle cx="531" cy="476" r="3" fill="blue" />
<circle cx="675" cy="349" r="3" fill="blue" />
<line x1="690" y1="339" x2="675" y2="349"
      style="stroke: darkgray;"   />
<circle cx="373" cy="559" r="3" fill="blue" />
<line x1="419" y1="529" x2="373" y2="559"
      style="stroke: darkgray;"   />
<circle cx="444" cy="186" r="3" fill="blue" />
<line x1="444" y1="186" x2="389" y2="201"
      style="stroke: darkgray;"   />
<circle cx="112" cy="333" r="3" fill="blue" />
<circle cx="350" cy="422" r="3" fill="blue" />
<circle cx="577" cy="184" r="3" fill="blue" />
<line x1="585" y1="165" x2="577" y2="184"
      style="stroke: darkgray;"   />
<circle cx="389" cy="201" r="3" fill="blue" />
<circle cx="260" cy="229" r="3" fill="blue" />
<circle cx="625" cy="692" r="3" fill="blue" />
<circle cx="690" cy="339" r="3" fill="blue" />
<circle cx="419" cy="529" r="3" fill="blue" />
<circle cx="585" cy="165" r="3" fill="blue" />
<circle cx="110" cy="140" r="3" fill="blue" />
<circle cx="466" cy="643" r="3" fill="blue" />
<circle cx="121" cy="606" r="3" fill="blue" />
</svg>
